<?xml version="1.0" standalone="no"?><!DOCTYPE svg PUBLIC "-//W3C//DTD SVG 1.1//EN" "http://www.w3.org/Graphics/SVG/1.1/DTD/svg11.dtd"><svg t="1741178285610" class="icon" viewBox="0 0 1024 1024" version="1.1" xmlns="http://www.w3.org/2000/svg" p-id="10862" xmlns:xlink="http://www.w3.org/1999/xlink" width="200" height="200"><path d="M511.3 98.2c-230.8 1-415.3 188.2-413 419 0.7 67.2 17.3 130.7 46.3 186.6l-36.1 191.4c-2.4 12.5 8.6 23.5 21.2 21.1l190.4-36c57.5 30.3 123 47.5 192.5 47.6C741.7 928.3 927 744.2 928 515c1-230.6-186.1-417.8-416.7-416.8z m0.7 477.9c0 17.5-14.3 31.9-31.9 31.9H351.9c-17.5 0-31.9-14.3-31.9-31.9 0-17.5 14.3-31.9 31.9-31.9h128.2c17.6 0 31.9 14.4 31.9 31.9z m192.1-127.9c0 17.6-14.4 32-32 32h-320c-17.6 0-32-14.4-32-32s14.4-32 32-32h320.1c17.5 0 31.9 14.4 31.9 32z" fill="#0DA5F3" p-id="10863"></path></svg>