<?xml version="1.0" standalone="no"?><!DOCTYPE svg PUBLIC "-//W3C//DTD SVG 1.1//EN" "http://www.w3.org/Graphics/SVG/1.1/DTD/svg11.dtd"><svg t="1741267819172" class="icon" viewBox="0 0 1024 1024" version="1.1" xmlns="http://www.w3.org/2000/svg" p-id="20423" xmlns:xlink="http://www.w3.org/1999/xlink" width="200" height="200"><path d="M810.666667 128H213.333333a85.333333 85.333333 0 0 0-85.333333 85.333333v597.333334a85.333333 85.333333 0 0 0 85.333333 85.333333h597.333334a85.333333 85.333333 0 0 0 85.333333-85.333333V213.333333a85.333333 85.333333 0 0 0-85.333333-85.333333m0 682.666667H213.333333V213.333333h597.333334v597.333334M725.333333 358.4L571.733333 512l153.6 153.6-59.733333 59.733333-153.6-153.6L358.4 725.333333 298.666667 665.6l153.6-153.6L298.666667 358.4 358.4 298.666667l153.6 153.6L665.6 298.666667 725.333333 358.4z" fill="" p-id="20424"></path></svg>