<svg width="1024" height="1024" xmlns="http://www.w3.org/2000/svg" t="1741178285610" class="icon" version="1.1" p-id="10862">
 <g>
  <title>Layer 1</title>
  <path stroke="#1e1e1e" stroke-width="32" d="m506.83369,25.00471c-268.35221,1.17476 -482.8712,221.09001 -480.19698,492.22483c0.81389,78.94393 20.11479,153.54125 53.83322,219.21039l-41.97363,224.84924c-2.79049,14.68451 9.99926,27.60688 24.64934,24.78746l221.37895,-42.29139c66.85551,35.59526 143.01266,55.80114 223.82063,55.91862c266.37561,0.4699 481.82477,-215.80358 482.98747,-485.05879c1.1627,-270.89987 -216.37932,-490.81512 -484.49899,-489.64036zm0.81389,561.41825c0,20.55832 -16.62668,37.47487 -37.09028,37.47487l-149.05872,0c-20.34733,0 -37.09028,-16.79908 -37.09028,-37.47487c0,-20.55832 16.62668,-37.47487 37.09028,-37.47487l149.05872,0c20.4636,0 37.09028,16.91656 37.09028,37.47487zm223.35554,-150.25192c0,20.67579 -16.74295,37.59235 -37.20655,37.59235l-372.06546,0c-20.4636,0 -37.20655,-16.91656 -37.20655,-37.59235s16.74295,-37.59235 37.20655,-37.59235l372.18173,0c20.34733,0 37.09028,16.91656 37.09028,37.59235z" fill="#f2f2f2" p-id="10863" id="svg_1"/>
 </g>

</svg>