<svg width="1024" height="1024" xmlns="http://www.w3.org/2000/svg" p-id="8218" version="1.1" class="icon" t="1742534934668">

 <g>
  <title>Layer 1</title>
  <ellipse stroke="null" ry="512" rx="512" id="svg_6" cy="512" cx="512" fill="#333333"/>
  <path stroke="null" id="svg_1" p-id="8219" fill="#f4f4f4" d="m787.43749,750.00006l-190.68749,0l-275.43748,170.00002l0,-170.00002l-84.74999,0a63.5625,63.75001 0 0 1 -63.5625,-63.75001l0,-382.50004a63.5625,63.75001 0 0 1 63.5625,-63.75001l550.87496,0a63.5625,63.75001 0 0 1 63.5625,63.75001l0,382.50004a63.5625,63.75001 0 0 1 -63.5625,63.75001zm-21.1875,-425.00004l-508.49996,0l0,340.00003l127.12499,0l21.1875,106.25001l169.49999,-106.25001l190.68749,0l0,-340.00003z"/>
  <rect id="svg_4" height="256" width="81" y="368" x="472" fill="#f4f4f4"/>
  <rect id="svg_7" height="256" width="81" y="369" x="332" fill="#f4f4f4"/>
  <rect id="svg_8" height="256" width="81" y="368" x="611" fill="#f4f4f4"/>
 </g>
</svg>